<svg width="75" height="50" viewBox="0 0 75 50" fill="none" xmlns="http://www.w3.org/2000/svg">
<path d="M0.794434 0H49.8783C56.5201 0 62.8898 2.63392 67.5862 7.32233C72.2827 12.0107 74.9211 18.3696 74.9211 25C74.9211 31.6304 72.2827 37.9893 67.5862 42.6777C62.8898 47.3661 56.5201 50 49.8783 50H0.794434V0Z" fill="#FFB446"/>
<path d="M40.38 32.806C38.9346 33.8866 37.1773 34.4704 35.3715 34.47C33.6326 34.5125 31.9207 34.0366 30.4541 33.1031C28.9875 32.1697 27.8329 30.8209 27.1379 29.2292C26.4429 27.6375 26.239 25.8751 26.5522 24.1671C26.8654 22.4591 27.6814 20.8831 28.8962 19.6404C30.1109 18.3977 31.6692 17.5447 33.3719 17.1904C35.0747 16.836 36.8446 16.9965 38.4556 17.6511C40.0665 18.3058 41.4454 19.425 42.4161 20.8658C43.3868 22.3066 43.9052 24.0036 43.9051 25.74C43.9102 27.8197 43.1789 29.8342 41.8405 31.428L45.8765 35.558L44.474 36.995L40.38 32.806ZM27.8406 25.74C27.8777 27.2192 28.3509 28.6547 29.2011 29.8667C30.0513 31.0788 31.2409 32.0135 32.6207 32.5541C34.0004 33.0946 35.5092 33.2169 36.9583 32.9056C38.4073 32.5944 39.7322 31.8633 40.7672 30.8041C41.8021 29.7448 42.5011 28.4043 42.7767 26.9504C43.0523 25.4965 42.8922 23.9938 42.3164 22.6303C41.7407 21.2668 40.7749 20.1031 39.54 19.2848C38.305 18.4665 36.8558 18.03 35.3735 18.03C33.3512 18.0576 31.4225 18.8849 30.0104 20.3302C28.5982 21.7756 27.8179 23.7211 27.8406 25.74Z" fill="white"/>
</svg>
