<svg width="20" height="17" viewBox="0 0 20 17" fill="none" xmlns="http://www.w3.org/2000/svg">
<path d="M19.0829 2.71517C18.5455 3.50125 17.8958 4.17102 17.1338 4.72449C17.1418 4.83679 17.1458 5.00523 17.1458 5.22983C17.1458 6.27259 16.9934 7.31535 16.6886 8.35811C16.3838 9.39285 15.9185 10.3875 15.2929 11.342C14.6753 12.2965 13.9373 13.1428 13.079 13.8807C12.2208 14.6107 11.186 15.1962 9.9748 15.6374C8.7636 16.0705 7.46817 16.2871 6.08851 16.2871C3.91476 16.2871 1.92549 15.7056 0.12071 14.5425C0.401454 14.5746 0.714282 14.5906 1.0592 14.5906C2.86397 14.5906 4.47223 14.0372 5.88397 12.9302C5.04174 12.9142 4.28774 12.6575 3.62198 12.1602C2.95622 11.6548 2.49901 11.0131 2.25035 10.2351C2.51505 10.2752 2.7597 10.2952 2.98429 10.2952C3.32921 10.2952 3.67011 10.2511 4.007 10.1629C3.10862 9.9784 2.36265 9.53322 1.76908 8.82736C1.18352 8.11346 0.89075 7.28728 0.89075 6.34879V6.30066C1.43619 6.60547 2.02174 6.76991 2.6474 6.79397C2.118 6.44104 1.69688 5.97981 1.38406 5.41031C1.07123 4.8408 0.914813 4.22316 0.914813 3.5574C0.914813 2.85153 1.09128 2.1978 1.44422 1.59621C2.41479 2.79137 3.59391 3.74991 4.98158 4.47182C6.37728 5.18571 7.86923 5.58276 9.45743 5.66298C9.39326 5.35817 9.36118 5.06138 9.36118 4.77262C9.36118 3.69777 9.73818 2.78335 10.4922 2.02935C11.2542 1.26734 12.1726 0.886327 13.2475 0.886327C14.3704 0.886327 15.317 1.29541 16.087 2.11358C16.9613 1.94513 17.7835 1.6323 18.5535 1.17509C18.2567 2.09753 17.6872 2.81143 16.845 3.31676C17.591 3.23655 18.3369 3.03602 19.0829 2.71517Z" fill="#CCCCCC"/>
</svg>
